<svg width="36" height="41" viewBox="0 0 36 41" fill="none" xmlns="http://www.w3.org/2000/svg">
<path d="M34.8 5.69995C34.05 4.94995 33 4.49995 31.95 4.49995H30V0.449951H25.95V4.49995H10.05V0.449951H6V4.49995H4.05C3 4.49995 1.95 4.94995 1.2 5.69995C0.45 6.44995 0 7.49995 0 8.54995V36.5999C0 37.6499 0.45 38.6999 1.2 39.4499C1.95 40.1999 3 40.5 4.05 40.5H32.1C33.15 40.5 34.2 40.0499 34.95 39.2999C35.7 38.5499 36 37.4999 36 36.4499V8.54995C36 7.49995 35.55 6.44995 34.8 5.69995ZM12 30.4499H7.95V26.4H12V30.4499ZM12 22.4999H7.95V18.4499H12V22.4999ZM19.95 30.4499H15.9V26.4H19.95V30.4499ZM19.95 22.4999H15.9V18.4499H19.95V22.4999ZM28.05 30.4499H24V26.4H28.05V30.4499ZM28.05 22.4999H24V18.4499H28.05V22.4999ZM31.95 14.4H4.05V10.35H32.1V14.4H31.95Z" fill="#7A99AC"/>
</svg>
