<svg width="39" height="39" viewBox="0 0 39 39" fill="none" xmlns="http://www.w3.org/2000/svg">
<path d="M17.6616 7.1916H23.6616L30.2416 0.591597C30.4275 0.40414 30.6487 0.255351 30.8924 0.153814C31.1362 0.0522765 31.3976 0 31.6616 0C31.9256 0 32.187 0.0522765 32.4307 0.153814C32.6745 0.255351 32.8957 0.40414 33.0816 0.591597L38.2416 5.7716C38.6141 6.14632 38.8232 6.65322 38.8232 7.1816C38.8232 7.70997 38.6141 8.21687 38.2416 8.5916L33.6616 13.1916H17.6616V17.1916C17.6616 17.722 17.4509 18.2307 17.0758 18.6058C16.7007 18.9809 16.192 19.1916 15.6616 19.1916C15.1312 19.1916 14.6224 18.9809 14.2474 18.6058C13.8723 18.2307 13.6616 17.722 13.6616 17.1916V11.1916C13.6616 10.1307 14.083 9.11331 14.8332 8.36317C15.5833 7.61302 16.6007 7.1916 17.6616 7.1916ZM5.66159 17.1916V25.1916L1.08159 29.7716C0.709084 30.1463 0.5 30.6532 0.5 31.1816C0.5 31.71 0.709084 32.2169 1.08159 32.5916L6.24159 37.7716C6.42751 37.9591 6.64871 38.1078 6.89243 38.2094C7.13615 38.3109 7.39756 38.3632 7.66159 38.3632C7.92561 38.3632 8.18702 38.3109 8.43074 38.2094C8.67446 38.1078 8.89566 37.9591 9.08158 37.7716L17.6616 29.1916H25.6616C26.192 29.1916 26.7007 28.9809 27.0758 28.6058C27.4509 28.2307 27.6616 27.722 27.6616 27.1916V25.1916H29.6616C30.192 25.1916 30.7007 24.9809 31.0758 24.6058C31.4509 24.2307 31.6616 23.722 31.6616 23.1916V21.1916H33.6616C34.192 21.1916 34.7007 20.9809 35.0758 20.6058C35.4509 20.2307 35.6616 19.722 35.6616 19.1916V17.1916H21.6616V19.1916C21.6616 20.2525 21.2402 21.2699 20.49 22.02C19.7399 22.7702 18.7225 23.1916 17.6616 23.1916H13.6616C12.6007 23.1916 11.5833 22.7702 10.8332 22.02C10.083 21.2699 9.66158 20.2525 9.66158 19.1916V13.1916L5.66159 17.1916Z" fill="#7A99AC"/>
</svg>
