<svg width="40" height="38" viewBox="0 0 40 38" fill="none" xmlns="http://www.w3.org/2000/svg">
<path d="M23.5588 25.5999L35.5588 37.5999L39.7787 33.2799L27.7788 21.2799L23.5588 25.5999ZM30.9988 15.1999C30.2188 15.1999 29.3788 15.0999 28.7188 14.8199L5.93875 37.4999L1.71875 33.2799L16.5388 18.4799L12.9988 14.9199L11.5588 16.3199L8.65875 13.4999V19.2199L7.25875 20.6199L0.21875 13.4999L1.61875 12.0999H7.23875L4.43875 9.2799L11.5588 2.1599C12.1119 1.60382 12.7694 1.16253 13.4936 0.861409C14.2178 0.560289 14.9944 0.405273 15.7788 0.405273C16.5631 0.405273 17.3397 0.560289 18.0639 0.861409C18.7881 1.16253 19.4456 1.60382 19.9988 2.1599L15.7788 6.4799L18.5988 9.2799L17.1788 10.6999L20.7588 14.2599L24.3988 10.4999C24.1187 9.8399 23.9988 8.9999 23.9988 8.2599C23.9908 7.33656 24.1662 6.42081 24.5146 5.56571C24.8631 4.7106 25.3778 3.93314 26.0288 3.27835C26.6799 2.62356 27.4544 2.10447 28.3075 1.75112C29.1606 1.39778 30.0754 1.21722 30.9988 1.2199C32.1788 1.2199 33.2188 1.4999 34.1587 2.0599L28.8188 7.3999L31.8188 10.3999L37.1587 5.05991C37.7188 5.99991 37.9987 6.9999 37.9987 8.2599C37.9987 12.0999 34.8988 15.1999 30.9988 15.1999Z" fill="#7A99AC"/>
</svg>
