<svg width="42" height="30" viewBox="0 0 42 30" fill="none" xmlns="http://www.w3.org/2000/svg">
<path fill-rule="evenodd" clip-rule="evenodd" d="M42 18.6608C42 17.1478 42 15.6348 41.4717 14.1217C41.2076 12.6087 40.4151 11.3478 39.0943 10.3391C40.4151 9.58259 40.6792 7.81738 39.8868 6.80868C39.0943 5.54782 37.5094 5.04347 36.1887 5.04347C35.9245 5.04347 35.6604 5.04347 35.3962 5.04347C34.8679 4.7913 34.6038 4.28695 34.3396 4.03477C33.283 2.77391 32.2264 1.26087 30.6415 0.504346C29.5849 -4.87674e-07 28.2642 0 27.2075 0C23.2453 0 19.5472 0 15.5849 0C14 0 12.1509 -1.9507e-06 10.8302 0.756518C9.50944 1.51304 8.45283 3.02608 7.66038 4.03477C7.39623 4.53912 7.13208 4.79129 6.86793 4.79129C6.60377 5.04347 6.07547 5.04347 5.81132 5.04347C4.22641 5.04347 2.90566 5.79999 2.11321 6.80868C1.32076 7.81738 1.58491 9.83476 2.90566 10.5913C1.58491 11.6 0.792452 12.8608 0.528301 14.3739C0.26415 15.8869 0.264151 17.4 0 18.913C0 21.1826 -2.71201e-07 23.4521 0.264151 25.7217C0.528302 27.4869 1.0566 29.2521 3.16981 29.7565C5.01887 30.2608 7.13208 30.0086 8.71698 28.7478C8.98113 28.4956 8.98113 28.4956 9.24528 28.2434C9.50943 28.2434 9.77359 28.2434 10.0377 28.2434C17.434 28.2434 24.8302 28.2434 32.2264 28.2434C32.4906 28.2434 32.4906 28.2434 32.7547 28.2434C33.0189 28.2434 33.0189 28.4956 33.283 28.7478C33.8113 29.5043 34.8679 29.5043 35.9245 29.7565C37.2453 30.0086 38.566 30.0086 39.8868 29.2521C41.2076 28.4956 41.4717 26.9826 41.7358 25.4695C42 23.7043 42 21.9391 42 20.1739C42 19.6695 42 19.1652 42 18.6608ZM17.1698 21.1826C17.1698 21.6869 16.9057 21.9391 16.3774 21.4347C16.1132 21.1826 16.1132 20.9304 15.8491 20.6782C15.5849 19.9217 15.3208 19.1652 14.5283 18.6608C13.7359 17.9043 12.4151 17.9043 11.3585 17.6521C10.566 17.4 9.77358 17.1478 8.98113 16.8956C8.71698 16.6434 8.18868 16.6434 7.92453 16.6434C7.66038 16.6434 7.39623 16.8956 7.13207 16.8956C6.60377 17.1478 5.81132 16.8956 5.28302 16.6434C4.49057 16.3913 3.96226 15.8869 3.43396 15.1304C3.16981 14.8782 2.90566 14.3739 2.64151 13.8695C2.64151 13.3652 2.90566 12.8608 3.16981 12.6087C3.69811 12.3565 4.49057 12.6087 5.01887 13.113C7.66038 14.6261 10.566 14.8782 13.4717 15.6348C14.2642 15.8869 15.0566 16.1391 15.5849 16.6434C16.1132 17.1478 16.3774 17.6521 16.3774 18.1565C16.6415 18.913 16.9057 19.6695 16.9057 20.6782C17.434 20.6782 17.434 20.9304 17.1698 21.1826ZM24.0377 16.1391C23.5094 17.4 22.717 18.6608 21.9245 19.6695C21.6604 19.9217 21.6604 20.1739 21.3962 20.1739C21.1321 20.1739 20.8679 19.9217 20.6038 19.6695C20.0755 18.913 19.5472 18.1565 19.0189 17.4C18.7547 16.8956 18.4906 16.6434 18.4906 16.1391C18.2264 15.8869 18.2264 15.3826 18.4906 14.8782C18.2264 14.8782 18.4906 14.8782 18.7547 14.8782C19.0189 14.8782 19.283 15.1304 19.5472 15.1304C20.3396 15.6348 20.8679 16.1391 21.1321 16.8956C21.6604 16.1391 22.1887 15.3826 22.9811 15.1304C22.9811 15.1304 23.2453 14.8782 23.5094 14.8782C23.7736 14.8782 23.7736 14.8782 24.0377 14.8782C24.3019 14.8782 24.3019 15.1304 24.3019 15.3826C24.3019 15.8869 24.0377 15.8869 24.0377 16.1391ZM38.566 15.1304C38.0377 15.6348 37.5094 16.1391 36.717 16.6434C36.1887 16.8956 35.3962 17.1478 34.8679 16.8956C34.6038 16.8956 34.3396 16.6434 34.0755 16.6434C33.8113 16.6434 33.283 16.8956 33.0189 16.8956C32.2264 17.1478 31.434 17.4 30.6415 17.6521C29.5849 17.9043 28.2642 17.9043 27.4717 18.6608C26.9434 19.1652 26.4151 19.9217 26.1509 20.6782C26.1509 20.9304 25.8868 21.1826 25.6226 21.4347C25.0943 21.9391 24.8302 21.6869 24.8302 21.1826C24.8302 20.9304 24.8302 20.6782 24.8302 20.6782C24.8302 19.9217 25.0943 18.913 25.3585 18.1565C25.6226 17.6521 25.8868 16.8956 26.1509 16.6434C26.6792 16.1391 27.4717 15.8869 28.2642 15.6348C31.1698 14.8782 34.0755 14.3739 36.717 13.113C37.2453 12.8608 38.0377 12.3565 38.566 12.6087C39.0943 12.8608 39.3585 13.3652 39.0943 13.8695C39.3585 14.3739 39.0943 14.6261 38.566 15.1304Z" fill="#7A99AC"/>
</svg>
