<svg width="36" height="45" viewBox="0 0 36 45" fill="none" xmlns="http://www.w3.org/2000/svg">
<path d="M22.84 13.5L26 20.5H10L12.84 13.5H22.84ZM12 22.5C10.9 22.5 10 23.4 10 24.5C10 25.6 10.9 26.5 12 26.5C13.1 26.5 14 25.6 14 24.5C14 23.4 13.1 22.5 12 22.5ZM24 22.5C22.9 22.5 22 23.4 22 24.5C22 25.6 22.9 26.5 24 26.5C25.1 26.5 26 25.6 26 24.5C26 23.4 25.1 22.5 24 22.5ZM36 8.5V20.5C36 31.6 28.32 41.98 18 44.5C7.68 41.98 0 31.6 0 20.5V8.5L18 0.5L36 8.5ZM30 22.5L25.68 12.5C25.28 11.34 24.16 10.5 22.84 10.5H12.84C11.52 10.5 10.4 11.34 10 12.5L6 22.5V30.5C6 31.6 6.9 32.5 8 32.5H10C11.1 32.5 12 31.6 12 30.5V28.5H24V30.5C24 31.6 24.9 32.5 26 32.5H28C29.1 32.5 30 31.6 30 30.5V22.5Z" fill="#7A99AC"/>
</svg>
